<svg xmlns="http://www.w3.org/2000/svg" width="280" height="323.604" viewBox="0 0 280 323.604"><defs><style>.a{fill:#3585c2;}.b{opacity:0.79;}.c,.d,.e,.f,.g,.r{fill:none;}.c,.d,.e,.g{stroke:#fff;}.c{stroke-width:2px;opacity:0.6;}.d{stroke-width:2.6px;opacity:0.7;}.e{stroke-width:1.6px;opacity:0.4;}.f{opacity:0.1;}.g{stroke-width:0.5px;opacity:0.18;}.h{fill:#ed9478;}.i{fill:#87b7da;}.j{fill:#122330;}.k{fill:#0367b2;}.l{fill:#cd6d5a;}.m{fill:#403a3a;}.n{fill:#dd836b;}.o{fill:#f47458;}.p{fill:#fefefd;}.q,.s{stroke:none;}.s{fill:#fff;}</style></defs><g transform="translate(-38 -148.018)"><circle class="a" cx="130.5" cy="130.5" r="130.5" transform="translate(57 168)"/><g transform="translate(-23.122 -31.869)"><g class="b" transform="translate(61.496 197.125)"><g class="c" transform="translate(22.626 23.744)"><circle class="q" cx="29" cy="29" r="29"/><circle class="r" cx="29" cy="29" r="28"/></g><g class="d" transform="translate(31.626 32.744)"><circle class="q" cx="20" cy="20" r="20"/><circle class="r" cx="20" cy="20" r="18.7"/></g><g class="e" transform="translate(14.626 13.744)"><ellipse class="q" cx="38" cy="37.5" rx="38" ry="37.5"/><ellipse class="r" cx="38" cy="37.5" rx="37.2" ry="36.7"/></g><g class="f" transform="translate(6.062 5.989)"><path class="q" d="M45.869,0A45.869,45.869,0,1,1,0,45.869,45.869,45.869,0,0,1,45.869,0Z"/><path class="s" d="M 45.8690299987793 0.9999923706054688 C 39.81130599975586 0.9999923706054688 33.93531799316406 2.186180114746094 28.40428161621094 4.525619506835938 C 23.06143188476563 6.785453796386719 18.26285552978516 10.02082061767578 14.14183044433594 14.14183044433594 C 10.02082061767578 18.26285552978516 6.785453796386719 23.06143188476563 4.525619506835938 28.40428161621094 C 2.186180114746094 33.93531799316406 0.9999923706054688 39.81130599975586 0.9999923706054688 45.8690299987793 C 0.9999923706054688 51.92674255371094 2.186180114746094 57.80273056030273 4.525619506835938 63.33376693725586 C 6.785453796386719 68.67662048339844 10.02082061767578 73.47520446777344 14.14183044433594 77.59621429443359 C 18.26285552978516 81.71723175048828 23.06143188476563 84.95259094238281 28.40428161621094 87.21243286132813 C 33.93531799316406 89.55186462402344 39.81130599975586 90.73805236816406 45.8690299987793 90.73805236816406 C 51.92674255371094 90.73805236816406 57.80273056030273 89.55186462402344 63.33376693725586 87.21243286132813 C 68.67662048339844 84.95259094238281 73.47520446777344 81.71723175048828 77.59621429443359 77.59621429443359 C 81.71723175048828 73.47520446777344 84.95259094238281 68.67662048339844 87.21243286132813 63.33376693725586 C 89.55186462402344 57.80273056030273 90.73805236816406 51.92674255371094 90.73805236816406 45.8690299987793 C 90.73805236816406 39.81130599975586 89.55186462402344 33.93531799316406 87.21243286132813 28.40428161621094 C 84.95259094238281 23.06143188476563 81.71723175048828 18.26285552978516 77.59621429443359 14.14183044433594 C 73.47520446777344 10.02082061767578 68.67662048339844 6.785453796386719 63.33376693725586 4.525619506835938 C 57.80273056030273 2.186180114746094 51.92674255371094 0.9999923706054688 45.8690299987793 0.9999923706054688 M 45.8690299987793 -7.62939453125e-06 C 71.2017822265625 -7.62939453125e-06 91.73805236816406 20.53627014160156 91.73805236816406 45.8690299987793 C 91.73805236816406 71.2017822265625 71.2017822265625 91.73805236816406 45.8690299987793 91.73805236816406 C 20.53627014160156 91.73805236816406 -7.62939453125e-06 71.2017822265625 -7.62939453125e-06 45.8690299987793 C -7.62939453125e-06 20.53627014160156 20.53627014160156 -7.62939453125e-06 45.8690299987793 -7.62939453125e-06 Z"/></g><g class="g" transform="translate(-0.374 -0.256)"><circle class="q" cx="52.5" cy="52.5" r="52.5"/><circle class="r" cx="52.5" cy="52.5" r="52.25"/></g></g><g transform="translate(106.137 179.887)"><g transform="translate(0 0)"><path class="h" d="M241.59,938.266s-1.9-1.519-9.117,1.139-22.411,25.07-25.07,42.163-9.5,44.822-9.5,44.822l23.171,4.558Z" transform="translate(-138.319 -853.179)"/><path class="i" d="M233.374,938.178c-7.187,2.742-20.621,26.4-25.325,43.052-1.646,5.825-2.817,12.283-4.179,18.74,7.45,2.609,16.291,5.242,23.938,7.464l9.152-70.264A16.67,16.67,0,0,0,233.374,938.178Z" transform="translate(-139.884 -853.005)"/><path class="h" d="M196.4,1018.547s-42.955-52.314-41.4-58.3.221-22.842.221-22.842-27.679-21.887-29.453-18.56,2.175,24.77,2.175,24.77l13.085,21.734s30.162,75.4,34.375,75.846,34.375-7.318,34.375-7.318Z" transform="translate(-119.265 -848.105)"/><path class="j" d="M128.45,908.949l16.966,24.284-1.468,10.384a2.661,2.661,0,0,1-4.6,1.422c-6.249-6.862-18.324-20.175-21.769-24.352a2.026,2.026,0,0,1-.055-2.5C119.5,915.537,124.271,909.717,128.45,908.949Z" transform="translate(-117.115 -845.598)"/><path class="k" d="M263.96,937.883s13.729-1.255,19.218,11.718,10.978,75.345,8.482,105.282,5.464,70.809,5.464,70.809c-47.861,24.691-77.378,11.379-77.378,11.379s-14.571-127.392-9.917-148.551c9.727-44.221,28.427-51.35,28.427-51.35Z" transform="translate(-141.178 -853.005)"/><path class="h" d="M322.367,1151.6c5.185-8.424,6.349-7.227,6.985-8.325.753-1.3-.083-21.349-.083-21.349s-2.079-59.115-2.3-62.3l-26.549-54.577,22.95-21.424s27.326,60.174,28.213,63.581-5.433,83.747-5.765,90.836c0,0,2.661,8.572,4.157,14.012s.535,11.305.725,12.906a51.368,51.368,0,0,1-.971,12.347c-1.142,5.808-2.66-.207-2.66-.207s.226-11.129-.637-10.986c-.666.11-.437,6.192-1.635,12.631-.308,1.656-.618,3.288-.915,4.786-.778,3.932-3.361,4.594-3.188.353a40.841,40.841,0,0,1,.582-5.74,33.761,33.761,0,0,0,.236-5.411,44.248,44.248,0,0,0,.208-5.576c-.176.087-.59-.58-.97,1.167-.458,2.1-.464,6.774-1.37,9.813-.514,1.723-1.374,5.389-1.374,5.389s-2.313,5.3-2.661,5.273c-1.885-.164-1.3-4.23-.305-6.481a27.54,27.54,0,0,1,.929-5.59s.347-8.2-.79-8.253c-.484-.024-1.285,4.985-2.827,9.779-1.431,4.45-3.587,8.715-4.49,8.569-1.532-.246-.457-5.355-.457-5.355s.94-3.54,1.164-4.739c.263-1.405.735-5.671.735-5.671s.966-14.924-.115-14.882-3.825,1.277-4.2,2.184-.207,2.926-.582,3.833a2.416,2.416,0,0,1-2.744,1.4c-1.123-.371-.957-5.44-.957-5.44S320.87,1154.033,322.367,1151.6Z" transform="translate(-165.224 -865.197)"/><path class="i" d="M333.128,992.966l-30.087,23.258s-13.285-12.624-19.957-26.587c-6.754-14.136,1.472-51.383,8.66-49.466C307.825,944.459,333.128,992.966,333.128,992.966Z" transform="translate(-160.015 -853.774)"/><path class="h" d="M277.6,902.734l-2.634,26.51s-12.824,16.955-20.847,13.2c-6.732-3.149-3.557-13.66-3.557-13.66s1.165-4.7,2.782-10.09c1.13-3.77,2.069-7.854,2-10.85C255.174,900.564,277.6,902.734,277.6,902.734Z" transform="translate(-151.942 -843.888)"/><path class="l" d="M254.658,918.554c1.11-3.729,2.025-7.748,1.956-10.706-.169-7.283,22.256-5.113,22.256-5.113l-.326,3.278a9.312,9.312,0,0,1-.455,1.041C273.367,916.214,262.118,921.038,254.658,918.554Z" transform="translate(-153.214 -843.888)"/><g transform="translate(83.762)"><path class="m" d="M234.277,848.03s-2.617,14.989,1.089,25.014a55.351,55.351,0,0,0,8.7,15.789l11.777-40.381Z" transform="translate(-231.391 -829.61)"/><path class="n" d="M231.223,877.98c1.151,3.575,3.768,5.931,5.846,5.262s2.83-4.108,1.679-7.683-3.768-5.931-5.847-5.262S230.072,874.4,231.223,877.98Z" transform="translate(-230.684 -835.424)"/><path class="h" d="M266.776,848.825c.514-.369,12.922,28.1,7.609,38.413s-18.892,15.125-26.036,10.217c-7.9-5.428-17.143-35.281-7.667-47.02S266.776,848.825,266.776,848.825Z" transform="translate(-232.253 -828.753)"/><path class="o" d="M286.823,892.5l-.581,8.9-2.434,3.46-.153-4.147Z" transform="translate(-244.586 -841.281)"/><path class="m" d="M259.6,824.569c8.713,2.762,13.527,5.459,22.085,13.406,10.523,9.771,5.608,26.824-.929,35.609a61.735,61.735,0,0,0-8.977,16.669s.855-9.96.908-12.107c.047-1.91.05-8.387.351-10.227.8-4.855.921-5.886-1.864-8.948-2.144-2.359-3.736-8.93-7.174-12.858l-12.837,2.608s-8.112,1.45-13.691-1.2C221.455,839.9,236.5,817,259.6,824.569Z" transform="translate(-230.718 -823.055)"/><path class="p" d="M274.377,880.773l7.479-10.431,1.12-.1-6.92,12.568Z" transform="translate(-242.151 -835.439)"/><path class="p" d="M266.646,881s5.224,12.008,6.784,14.519c0,0,.339,4.613-4.341,9.09s-15.739,6.038-21.37,3.731-9.905-22.32-9.905-22.32,8.005-3.663,10.854-3.867S266.646,881,266.646,881Z" transform="translate(-232.555 -838.263)"/><path class="p" d="M288.6,884.589l-3.409,12.974-1.781-2.035,3.205-9.26Z" transform="translate(-244.523 -839.205)"/><path class="h" d="M283.608,875.445c-.077,3.755,1.63,6.836,3.812,6.881s4.014-2.962,4.09-6.717-1.629-6.835-3.812-6.88S283.685,871.691,283.608,875.445Z" transform="translate(-244.573 -835.042)"/></g></g><path class="h" d="M140.94,925.938s7.873,1.331,8.206,1.331,9.869,6.1,9.869,7.318.665,12.53.665,12.53l-8.1-2.218s-1.109-6.431-.554-8.206l-3.216-3.437S138.833,931.26,140.94,925.938Z" transform="translate(-123.284 -850.057)"/></g></g></g></svg>